<svg xmlns="http://www.w3.org/2000/svg" viewBox="0 0 293.92 405.26"><defs><style>.cls-1,.cls-9{fill:#d84c74;}.cls-1,.cls-2,.cls-3,.cls-4,.cls-5,.cls-6,.cls-7,.cls-8{stroke:#fff;}.cls-1,.cls-12,.cls-13,.cls-14,.cls-15,.cls-2,.cls-3,.cls-4,.cls-5,.cls-6,.cls-7,.cls-8,.cls-9{stroke-miterlimit:10;}.cls-1,.cls-5{stroke-width:6px;}.cls-10,.cls-2,.cls-3{fill:#231f20;}.cls-15,.cls-2,.cls-4{stroke-width:2px;}.cls-14,.cls-3,.cls-9{stroke-width:3px;}.cls-11,.cls-12,.cls-13,.cls-14,.cls-15,.cls-4,.cls-5,.cls-6,.cls-7,.cls-8{fill:none;}.cls-6{stroke-width:5px;}.cls-13,.cls-8{stroke-width:4px;}.cls-12,.cls-13,.cls-14,.cls-15,.cls-9{stroke:#231f20;}</style></defs><g id="Layer_3" data-name="Layer 3"><circle class="cls-1" cx="154" cy="24.37" r="21.37"/><circle class="cls-2" cx="17.27" cy="169.38" r="16.27"/><circle class="cls-3" cx="67.26" cy="296.96" r="9.04"/><circle class="cls-3" cx="97.65" cy="322.59" r="8.86"/><circle class="cls-3" cx="128.55" cy="351.42" r="8.5"/><circle class="cls-2" cx="194.4" cy="246.22" r="4.25"/><circle class="cls-2" cx="234.37" cy="183.23" r="4.25"/><circle class="cls-4" cx="153.99" cy="24.37" r="5.25"/><circle class="cls-2" cx="97.65" cy="228.8" r="4.25"/><circle class="cls-2" cx="128.75" cy="161.82" r="4.25"/><path class="cls-4" d="M292.52,156.94" transform="translate(-2.18 -3.82)"/><path class="cls-5" d="M172.54,43.52l2.94,2.81,45.48,43,65.35,61.78a20.65,20.65,0,0,1,6.45,15l.35,108.73a20.73,20.73,0,0,1-6.46,15.08l-117,111a18.83,18.83,0,0,1-25.88,0L26.19,289.85a20.67,20.67,0,0,1-6.48-15.05V175.59" transform="translate(-2.18 -3.82)"/><path class="cls-6" d="M156.42,405.85V49.76" transform="translate(-2.18 -3.82)"/><path class="cls-7" d="M-6.68,156.94" transform="translate(-2.18 -3.82)"/><path class="cls-7" d="M131.05,110.53" transform="translate(-2.18 -3.82)"/><path class="cls-5" d="M236.56,173.46V149.39" transform="translate(-2.18 -3.82)"/><path class="cls-4" d="M236.56,173.46" transform="translate(-2.18 -3.82)"/><path class="cls-5" d="M69.44,300.79l2.48-134a5.75,5.75,0,0,1,5.75-5.76,5.54,5.54,0,0,1,2.47.55l148.19,65a5.76,5.76,0,0,0,8.23-5.21v-21" transform="translate(-2.18 -3.82)"/><path class="cls-4" d="M69.44,300.79" transform="translate(-2.18 -3.82)"/><path class="cls-7" d="M130.94,355.24" transform="translate(-2.18 -3.82)"/><path class="cls-6" d="M130.94,179V355.24" transform="translate(-2.18 -3.82)"/><path class="cls-5" d="M175.26,94.29v36.37a2.75,2.75,0,0,1-4,2.43L135,115.86a2.74,2.74,0,0,0-4,2.44s0,41.86.07,33.25" transform="translate(-2.18 -3.82)"/><path class="cls-7" d="M215.26,186.36" transform="translate(-2.18 -3.82)"/><path class="cls-7" d="M246.15,238.33" transform="translate(-2.18 -3.82)"/><circle class="cls-8" cx="234.37" cy="130.94" r="9.04"/><circle class="cls-8" cx="203.97" cy="105.32" r="8.86"/><circle class="cls-8" cx="173.07" cy="76.49" r="8.5"/><circle class="cls-3" cx="38.78" cy="272.21" r="9.04"/><circle class="cls-8" cx="265.52" cy="159.3" r="8.5"/><path class="cls-6" d="M175.29,240.7,51.37,183.48A7.34,7.34,0,0,0,41,189.92V276" transform="translate(-2.18 -3.82)"/><path class="cls-6" d="M267.7,177.05l.42,95.08a7.32,7.32,0,0,1-10.4,6.65s-54.83-25.32-43.85-20.26" transform="translate(-2.18 -3.82)"/><path class="cls-6" d="M99.85,251.52v74.91" transform="translate(-2.18 -3.82)"/><path class="cls-5" d="M206.15,123.45l.14,51.38a6.08,6.08,0,0,1-9,5.33l-88.45-40.9a6.06,6.06,0,0,0-8.24,2.4,5.93,5.93,0,0,0-.75,2.92v72.28" transform="translate(-2.18 -3.82)"/><path class="cls-7" d="M19.46,156.94" transform="translate(-2.18 -3.82)"/><path class="cls-7" d="M292.92,283.48" transform="translate(-2.18 -3.82)"/><path class="cls-7" d="M69.44,300.79" transform="translate(-2.18 -3.82)"/><line class="cls-1" x1="95.21" y1="249.23" x2="100.12" y2="249.23"/><line class="cls-1" x1="94.72" y1="210.69" x2="100.59" y2="210.69"/><line class="cls-1" x1="170.03" y1="238.13" x2="172.2" y2="233.7"/><line class="cls-1" x1="231.43" y1="197.86" x2="237.3" y2="197.86"/><line class="cls-1" x1="263.09" y1="174.6" x2="268" y2="174.6"/><line class="cls-1" x1="231.49" y1="167.55" x2="237.33" y2="167.55"/><line class="cls-1" x1="231.47" y1="147.02" x2="237.31" y2="147.02"/><line class="cls-1" x1="201.08" y1="120.91" x2="206.94" y2="120.91"/><line class="cls-1" x1="170.19" y1="91.82" x2="176.05" y2="91.82"/></g><g id="Layer_9" data-name="Layer 9"><circle class="cls-9" cx="154" cy="24.12" r="21.37"/><circle class="cls-10" cx="17.27" cy="169.13" r="16.27"/><circle class="cls-10" cx="67.26" cy="296.71" r="9.04"/><circle class="cls-10" cx="97.65" cy="322.34" r="8.86"/><circle class="cls-10" cx="128.55" cy="351.17" r="8.5"/><circle class="cls-10" cx="194.4" cy="245.97" r="4.25"/><circle class="cls-10" cx="234.37" cy="182.98" r="4.25"/><circle class="cls-11" cx="153.99" cy="24.12" r="5.25"/><circle class="cls-10" cx="97.65" cy="228.55" r="4.25"/><circle class="cls-10" cx="128.75" cy="161.57" r="4.25"/><path class="cls-12" d="M292.52,156.68" transform="translate(-2.18 -3.82)"/><path class="cls-13" d="M172.54,43.27l2.94,2.81L221,89.1l65.35,61.78a20.65,20.65,0,0,1,6.45,15l.35,108.73a20.69,20.69,0,0,1-6.46,15.07l-117,111a18.83,18.83,0,0,1-25.88,0L26.19,289.6a20.67,20.67,0,0,1-6.48-15.05V175.34" transform="translate(-2.18 -3.82)"/><path class="cls-14" d="M156.42,405.6V49.51" transform="translate(-2.18 -3.82)"/><path class="cls-12" d="M-6.68,156.68" transform="translate(-2.18 -3.82)"/><path class="cls-12" d="M131.05,110.28" transform="translate(-2.18 -3.82)"/><path class="cls-13" d="M236.56,173.21V149.14" transform="translate(-2.18 -3.82)"/><path class="cls-12" d="M236.56,173.21" transform="translate(-2.18 -3.82)"/><path class="cls-13" d="M69.44,300.54l2.48-134a5.77,5.77,0,0,1,5.75-5.77,5.69,5.69,0,0,1,2.47.56l148.19,65a5.76,5.76,0,0,0,8.23-5.21v-21" transform="translate(-2.18 -3.82)"/><path class="cls-12" d="M69.44,300.54" transform="translate(-2.18 -3.82)"/><path class="cls-12" d="M130.94,355" transform="translate(-2.18 -3.82)"/><path class="cls-14" d="M130.94,178.74V355" transform="translate(-2.18 -3.82)"/><path class="cls-13" d="M175.26,94v36.37a2.75,2.75,0,0,1-4,2.43L135,115.61a2.74,2.74,0,0,0-4,2.44s0,41.86.07,33.25" transform="translate(-2.18 -3.82)"/><path class="cls-12" d="M215.26,186.11" transform="translate(-2.18 -3.82)"/><path class="cls-12" d="M246.15,238.08" transform="translate(-2.18 -3.82)"/><circle class="cls-15" cx="234.37" cy="130.69" r="9.04"/><circle class="cls-15" cx="203.97" cy="105.07" r="8.86"/><circle class="cls-15" cx="173.07" cy="76.24" r="8.5"/><circle class="cls-10" cx="38.78" cy="271.95" r="9.04"/><circle class="cls-15" cx="265.52" cy="159.05" r="8.5"/><path class="cls-14" d="M175.29,240.45,51.37,183.23A7.34,7.34,0,0,0,41,189.67v86.11" transform="translate(-2.18 -3.82)"/><path class="cls-14" d="M267.7,176.8l.42,95.08a7.32,7.32,0,0,1-10.4,6.65s-54.83-25.32-43.85-20.26" transform="translate(-2.18 -3.82)"/><path class="cls-14" d="M99.85,251.27v74.91" transform="translate(-2.18 -3.82)"/><path class="cls-13" d="M206.15,123.2l.14,51.38a6.08,6.08,0,0,1-9,5.33L108.84,139a6.06,6.06,0,0,0-8.24,2.39,6,6,0,0,0-.75,2.93v72.28" transform="translate(-2.18 -3.82)"/><path class="cls-12" d="M19.46,156.68" transform="translate(-2.18 -3.82)"/><path class="cls-12" d="M292.92,283.23" transform="translate(-2.18 -3.82)"/><path class="cls-12" d="M69.44,300.54" transform="translate(-2.18 -3.82)"/></g></svg>