<?xml version="1.0" encoding="utf-8"?>
<!-- Generator: Adobe Illustrator 25.2.1, SVG Export Plug-In . SVG Version: 6.00 Build 0)  -->
<svg version="1.1" xmlns="http://www.w3.org/2000/svg" xmlns:xlink="http://www.w3.org/1999/xlink" x="0px" y="0px"
	 viewBox="0 0 298.5 411.8" style="enable-background:new 0 0 298.5 411.8;" xml:space="preserve">
<style type="text/css">
	.st0{display:none;}
	.st1{display:inline;fill:#D84C74;stroke:#231F20;stroke-width:2;stroke-miterlimit:10;}
	.st2{display:inline;fill:#D84C74;stroke:#FFFFFF;stroke-width:6;stroke-miterlimit:10;}
	.st3{display:inline;fill:#231F20;stroke:#FFFFFF;stroke-width:2;stroke-miterlimit:10;}
	.st4{display:inline;fill:#231F20;stroke:#FFFFFF;stroke-width:3;stroke-miterlimit:10;}
	.st5{display:inline;fill:none;stroke:#FFFFFF;stroke-width:2;stroke-miterlimit:10;}
	.st6{display:inline;fill:none;stroke:#FFFFFF;stroke-width:6;stroke-miterlimit:10;}
	.st7{display:inline;fill:none;stroke:#FFFFFF;stroke-width:5;stroke-miterlimit:10;}
	.st8{display:inline;fill:none;stroke:#FFFFFF;stroke-miterlimit:10;}
	.st9{display:inline;fill:none;stroke:#FFFFFF;stroke-width:4;stroke-miterlimit:10;}
	.st10{fill:#D84C74;stroke:#FFFFFF;stroke-width:3;stroke-miterlimit:10;}
	.st11{fill:#FFFFFF;stroke:#FFFFFF;stroke-miterlimit:10;}
	.st12{display:none;fill:#FFFFFF;stroke:#FFFFFF;stroke-miterlimit:10;}
	.st13{fill:none;stroke:#FFFFFF;stroke-miterlimit:10;}
	.st14{fill:none;stroke:#FFFFFF;stroke-width:5;stroke-miterlimit:10;}
	.st15{fill:#FFFFFF;stroke:#FFFFFF;stroke-width:2;stroke-miterlimit:10;}
	.st16{display:inline;fill:#D84C74;stroke:#231F20;stroke-width:3;stroke-miterlimit:10;}
	.st17{display:inline;fill:#231F20;}
	.st18{display:inline;fill:none;}
	.st19{display:inline;fill:none;stroke:#231F20;stroke-miterlimit:10;}
	.st20{display:inline;fill:none;stroke:#231F20;stroke-width:4;stroke-miterlimit:10;}
	.st21{display:inline;fill:none;stroke:#231F20;stroke-width:3;stroke-miterlimit:10;}
	.st22{display:inline;fill:none;stroke:#231F20;stroke-width:2;stroke-miterlimit:10;}
</style>
<g id="Layer_2" class="st0">
	<rect class="st1" width="298.5" height="411.8"/>
</g>
<g id="Layer_3" class="st0">
	<circle class="st2" cx="156.2" cy="28.2" r="21.4"/>
	<circle class="st3" cx="19.5" cy="173.2" r="16.3"/>
	<circle class="st4" cx="69.4" cy="300.8" r="9"/>
	<circle class="st4" cx="99.8" cy="326.4" r="8.9"/>
	<circle class="st4" cx="130.7" cy="355.2" r="8.5"/>
	<circle class="st3" cx="196.6" cy="250" r="4.3"/>
	<circle class="st3" cx="236.5" cy="187.1" r="4.3"/>
	<circle class="st5" cx="156.2" cy="28.2" r="5.3"/>
	<circle class="st3" cx="99.8" cy="232.6" r="4.3"/>
	<circle class="st3" cx="130.9" cy="165.6" r="4.3"/>
	<path class="st5" d="M292.5,156.9"/>
	<path class="st6" d="M172.5,43.5l2.9,2.8l45.5,43l65.3,61.8c4.1,3.9,6.4,9.3,6.5,15l0.3,108.7c0,5.7-2.3,11.2-6.5,15.1l-117.1,111
		c-7.3,6.9-18.6,6.9-25.9,0L26.2,289.8c-4.1-3.9-6.5-9.4-6.5-15v-99.2"/>
	<path class="st7" d="M156.4,405.9V49.8"/>
	<path class="st8" d="M-6.7,156.9"/>
	<path class="st8" d="M131,110.5"/>
	<path class="st6" d="M236.6,173.5v-24.1"/>
	<path class="st5" d="M236.6,173.5"/>
	<path class="st6" d="M69.4,300.8l2.5-134c0-3.2,2.6-5.8,5.8-5.8c0.9,0,1.7,0.2,2.5,0.6l148.2,65c2.9,1.4,6.3,0.1,7.7-2.8
		c0.4-0.8,0.6-1.6,0.6-2.5v-21"/>
	<path class="st5" d="M69.4,300.8"/>
	<path class="st8" d="M130.9,355.2"/>
	<path class="st7" d="M130.9,179v176.2"/>
	<path class="st6" d="M175.3,94.3v36.4c0,1.5-1.2,2.7-2.8,2.7c-0.4,0-0.9-0.1-1.3-0.3L135,115.9c-1.3-0.7-3-0.2-3.7,1.2
		c-0.2,0.4-0.3,0.8-0.3,1.3c0,0,0,41.9,0.1,33.2"/>
	<path class="st8" d="M215.3,186.4"/>
	<path class="st8" d="M246.2,238.3"/>
	<circle class="st9" cx="236.5" cy="134.8" r="9"/>
	<circle class="st9" cx="206.2" cy="109.1" r="8.9"/>
	<circle class="st9" cx="175.3" cy="80.3" r="8.5"/>
	<circle class="st4" cx="41" cy="276" r="9"/>
	<circle class="st9" cx="267.7" cy="163.1" r="8.5"/>
	<path class="st7" d="M175.3,240.7L51.4,183.5c-3.7-1.7-8-0.1-9.7,3.6c-0.4,0.9-0.6,1.9-0.7,2.8V276"/>
	<path class="st7" d="M267.7,177l0.4,95.1c0,4-3.3,7.3-7.3,7.3c-1.1,0-2.1-0.2-3.1-0.7c0,0-54.8-25.3-43.9-20.3"/>
	<path class="st7" d="M99.8,251.5v74.9"/>
	<path class="st6" d="M206.2,123.4l0.1,51.4c0,3.4-2.7,6.1-6.1,6.1c-1,0-2-0.3-2.9-0.8l-88.5-40.9c-2.9-1.6-6.6-0.5-8.2,2.4
		c-0.5,0.9-0.7,1.9-0.8,2.9v72.3"/>
	<path class="st8" d="M19.5,156.9"/>
	<path class="st8" d="M292.9,283.5"/>
	<path class="st8" d="M69.4,300.8"/>
	<line class="st2" x1="97.4" y1="253.1" x2="102.3" y2="253.1"/>
	<line class="st2" x1="96.9" y1="214.5" x2="102.8" y2="214.5"/>
	<line class="st2" x1="172.2" y1="242" x2="174.4" y2="237.5"/>
	<line class="st2" x1="233.6" y1="201.7" x2="239.5" y2="201.7"/>
	<line class="st2" x1="265.3" y1="178.4" x2="270.2" y2="178.4"/>
	<line class="st2" x1="233.7" y1="171.4" x2="239.5" y2="171.4"/>
	<line class="st2" x1="233.6" y1="150.8" x2="239.5" y2="150.8"/>
	<line class="st2" x1="203.3" y1="124.7" x2="209.1" y2="124.7"/>
	<line class="st2" x1="172.4" y1="95.6" x2="178.2" y2="95.6"/>
</g>
<g id="Layer_4">
	<circle class="st10" cx="154.9" cy="31" r="21"/>
	<circle class="st11" cx="20.7" cy="173.3" r="16"/>
	<circle class="st11" cx="69.7" cy="298.5" r="8.9"/>
	<circle class="st11" cx="99.6" cy="323.7" r="8.7"/>
	<circle class="st11" cx="129.9" cy="351.9" r="8.3"/>
	<circle class="st11" cx="194.5" cy="248.7" r="4.2"/>
	<circle class="st11" cx="233.7" cy="186.9" r="4.2"/>
	<circle class="st12" cx="154.9" cy="31" r="5.2"/>
	<circle class="st11" cx="99.6" cy="231.6" r="4.2"/>
	<circle class="st11" cx="130.1" cy="165.9" r="4.2"/>
	<path class="st13" d="M288.7,157.3"/>
	<path class="st14" d="M170.9,46l2.9,2.8L218.4,91l64.1,60.6c4,3.8,6.3,9.1,6.3,14.7l0.3,106.7c0,5.6-2.3,10.9-6.3,14.8L168,396.8
		c-7.1,6.7-18.3,6.7-25.4,0l-115.3-109c-4.1-3.8-6.4-9.2-6.4-14.8v-97.4"/>
	<path class="st14" d="M155.1,401.6V52.1"/>
	<path class="st13" d="M-5,157.3"/>
	<path class="st13" d="M130.2,111.8"/>
	<path class="st14" d="M233.8,173.5v-23.6"/>
	<path class="st13" d="M233.8,173.5"/>
	<path class="st14" d="M69.7,298.5L72.2,167c0-3.1,2.5-5.7,5.6-5.7c0.8,0,1.7,0.2,2.4,0.5l145.4,63.8c2.8,1.3,6.2,0.1,7.5-2.7
		c0.4-0.8,0.5-1.6,0.5-2.4V200"/>
	<path class="st13" d="M69.7,298.5"/>
	<path class="st13" d="M130.1,351.9"/>
	<path class="st14" d="M130.1,179v173"/>
	<path class="st14" d="M173.6,95.8v35.7c0,1.5-1.2,2.7-2.7,2.7c-0.4,0-0.9-0.1-1.2-0.3L134,117c-1.3-0.7-2.9-0.2-3.6,1.1
		c-0.2,0.4-0.3,0.8-0.3,1.3c0,0,0,41.1,0.1,32.6"/>
	<path class="st13" d="M212.9,186.2"/>
	<path class="st13" d="M243.2,237.2"/>
	<circle class="st15" cx="233.7" cy="135.6" r="8.9"/>
	<circle class="st15" cx="203.9" cy="110.4" r="8.7"/>
	<circle class="st15" cx="173.6" cy="82.1" r="8.3"/>
	<circle class="st11" cx="41.8" cy="274.2" r="8.9"/>
	<circle class="st15" cx="264.3" cy="163.4" r="8.3"/>
	<path class="st14" d="M173.6,239.5L52,183.4c-3.6-1.7-7.9-0.1-9.5,3.5c-0.4,0.9-0.6,1.8-0.7,2.8v84.5"/>
	<path class="st14" d="M264.3,177.1l0.4,93.3c0,4-3.2,7.2-7.2,7.2c-1,0-2.1-0.2-3-0.7c0,0-53.8-24.8-43-19.9"/>
	<path class="st14" d="M99.6,250.1v73.5"/>
	<path class="st14" d="M203.9,124.5l0.1,50.4c0,3.3-2.7,6-6,6c-1,0-2-0.3-2.9-0.7L108.4,140c-2.9-1.6-6.5-0.5-8.1,2.4
		c-0.5,0.9-0.7,1.9-0.7,2.9v70.9"/>
	<path class="st13" d="M20.7,157.3"/>
	<path class="st13" d="M289.1,281.5"/>
	<path class="st13" d="M69.7,298.5"/>
</g>
<g id="Layer_9" class="st0">
	<circle class="st16" cx="156.2" cy="27.9" r="21.4"/>
	<circle class="st17" cx="19.5" cy="173" r="16.3"/>
	<circle class="st17" cx="69.4" cy="300.5" r="9"/>
	<circle class="st17" cx="99.8" cy="326.2" r="8.9"/>
	<circle class="st17" cx="130.7" cy="355" r="8.5"/>
	<circle class="st17" cx="196.6" cy="249.8" r="4.3"/>
	<circle class="st17" cx="236.5" cy="186.8" r="4.3"/>
	<circle class="st18" cx="156.2" cy="27.9" r="5.3"/>
	<circle class="st17" cx="99.8" cy="232.4" r="4.3"/>
	<circle class="st17" cx="130.9" cy="165.4" r="4.3"/>
	<path class="st19" d="M292.5,156.7"/>
	<path class="st20" d="M172.5,43.3l2.9,2.8l45.5,43l65.3,61.8c4.1,3.9,6.4,9.3,6.5,15l0.3,108.7c0,5.7-2.3,11.2-6.5,15.1l-117.1,111
		c-7.3,6.9-18.6,6.9-25.9,0L26.2,289.6c-4.1-3.9-6.5-9.4-6.5-15v-99.2"/>
	<path class="st21" d="M156.4,405.6V49.5"/>
	<path class="st19" d="M-6.7,156.7"/>
	<path class="st19" d="M131,110.3"/>
	<path class="st20" d="M236.6,173.2v-24.1"/>
	<path class="st19" d="M236.6,173.2"/>
	<path class="st20" d="M69.4,300.5l2.5-134c0-3.2,2.6-5.8,5.8-5.8c0.9,0,1.7,0.2,2.5,0.6l148.2,65c2.9,1.4,6.3,0.1,7.7-2.8
		c0.4-0.8,0.6-1.6,0.6-2.5v-21"/>
	<path class="st19" d="M69.4,300.5"/>
	<path class="st19" d="M130.9,355"/>
	<path class="st21" d="M130.9,178.7V355"/>
	<path class="st20" d="M175.3,94v36.4c0,1.5-1.2,2.7-2.8,2.7c-0.4,0-0.9-0.1-1.3-0.3L135,115.6c-1.3-0.7-3-0.2-3.7,1.2
		c-0.2,0.4-0.3,0.8-0.3,1.3c0,0,0,41.9,0.1,33.2"/>
	<path class="st19" d="M215.3,186.1"/>
	<path class="st19" d="M246.2,238.1"/>
	<circle class="st22" cx="236.5" cy="134.5" r="9"/>
	<circle class="st22" cx="206.2" cy="108.9" r="8.9"/>
	<circle class="st22" cx="175.3" cy="80.1" r="8.5"/>
	<circle class="st17" cx="41" cy="275.8" r="9"/>
	<circle class="st22" cx="267.7" cy="162.9" r="8.5"/>
	<path class="st21" d="M175.3,240.5L51.4,183.2c-3.7-1.7-8-0.1-9.7,3.6c-0.4,0.9-0.6,1.9-0.7,2.8v86.1"/>
	<path class="st21" d="M267.7,176.8l0.4,95.1c0,4-3.3,7.3-7.3,7.3c-1.1,0-2.1-0.2-3.1-0.7c0,0-54.8-25.3-43.9-20.3"/>
	<path class="st21" d="M99.8,251.3v74.9"/>
	<path class="st20" d="M206.2,123.2l0.1,51.4c0,3.4-2.7,6.1-6.1,6.1c-1,0-2-0.3-2.9-0.8L108.8,139c-2.9-1.6-6.6-0.5-8.2,2.4
		c-0.5,0.9-0.7,1.9-0.8,2.9v72.3"/>
	<path class="st19" d="M19.5,156.7"/>
	<path class="st19" d="M292.9,283.2"/>
	<path class="st19" d="M69.4,300.5"/>
</g>
</svg>
