<svg id="Layer_4" data-name="Layer 4" xmlns="http://www.w3.org/2000/svg" viewBox="0 0 287.54 395.84"><defs><style>.cls-1{fill:#d84c74;stroke-width:3px;}.cls-1,.cls-2,.cls-3,.cls-4,.cls-5{stroke:#fff;stroke-miterlimit:10;}.cls-2,.cls-5{fill:#fff;}.cls-3,.cls-4{fill:none;}.cls-4{stroke-width:5px;}.cls-5{stroke-width:2px;}</style></defs><circle class="cls-1" cx="150.66" cy="22.48" r="20.98"/><circle class="cls-2" cx="16.47" cy="164.79" r="15.97"/><circle class="cls-2" cx="65.52" cy="290" r="8.88"/><circle class="cls-2" cx="95.36" cy="315.15" r="8.69"/><circle class="cls-2" cx="125.68" cy="343.44" r="8.34"/><circle class="cls-2" cx="190.3" cy="240.19" r="4.17"/><circle class="cls-2" cx="229.53" cy="178.38" r="4.17"/><circle class="cls-2" cx="95.36" cy="223.1" r="4.17"/><circle class="cls-2" cx="125.87" cy="157.37" r="4.17"/><path class="cls-3" d="M288.67,157.32" transform="translate(-4.21 -8.5)"/><path class="cls-4" d="M170.93,46l2.88,2.75L218.45,91l64.13,60.63a20.29,20.29,0,0,1,6.33,14.68L289.25,273a20.29,20.29,0,0,1-6.33,14.8L168,396.78a18.48,18.48,0,0,1-25.4,0l-115.35-109A20.33,20.33,0,0,1,20.93,273V175.63" transform="translate(-4.21 -8.5)"/><path class="cls-4" d="M155.1,401.61V52.14" transform="translate(-4.21 -8.5)"/><path class="cls-3" d="M-5,157.32" transform="translate(-4.21 -8.5)"/><path class="cls-3" d="M130.2,111.78" transform="translate(-4.21 -8.5)"/><path class="cls-4" d="M233.75,173.54V149.91" transform="translate(-4.21 -8.5)"/><path class="cls-3" d="M233.75,173.54" transform="translate(-4.21 -8.5)"/><path class="cls-4" d="M69.74,298.5,72.17,167a5.67,5.67,0,0,1,5.65-5.66,5.6,5.6,0,0,1,2.42.55l145.43,63.79a5.66,5.66,0,0,0,7.54-2.7,5.58,5.58,0,0,0,.54-2.41V200" transform="translate(-4.21 -8.5)"/><path class="cls-3" d="M69.74,298.5" transform="translate(-4.21 -8.5)"/><path class="cls-3" d="M130.1,351.94" transform="translate(-4.21 -8.5)"/><path class="cls-4" d="M130.1,179v173" transform="translate(-4.21 -8.5)"/><path class="cls-4" d="M173.6,95.84v35.7a2.71,2.71,0,0,1-3.95,2.38L134,117a2.7,2.7,0,0,0-3.64,1.14,2.75,2.75,0,0,0-.3,1.26s0,41.08.06,32.62" transform="translate(-4.21 -8.5)"/><path class="cls-3" d="M212.85,186.2" transform="translate(-4.21 -8.5)"/><path class="cls-3" d="M243.17,237.2" transform="translate(-4.21 -8.5)"/><circle class="cls-5" cx="229.53" cy="127.07" r="8.88"/><circle class="cls-5" cx="199.7" cy="101.91" r="8.69"/><circle class="cls-5" cx="169.37" cy="73.62" r="8.34"/><circle class="cls-2" cx="37.58" cy="265.7" r="8.88"/><circle class="cls-5" cx="260.1" cy="154.89" r="8.34"/><path class="cls-4" d="M173.62,239.53,52,183.37a7.21,7.21,0,0,0-10.2,6.32V274.2" transform="translate(-4.21 -8.5)"/><path class="cls-4" d="M264.32,177.06l.41,93.31a7.18,7.18,0,0,1-10.21,6.53l-43-19.88" transform="translate(-4.21 -8.5)"/><path class="cls-4" d="M99.58,250.14v73.52" transform="translate(-4.21 -8.5)"/><path class="cls-4" d="M203.91,124.45l.13,50.43a6,6,0,0,1-5.95,6,5.9,5.9,0,0,1-2.87-.74L108.41,140a6,6,0,0,0-8.09,2.36,5.83,5.83,0,0,0-.74,2.86v70.95" transform="translate(-4.21 -8.5)"/><path class="cls-3" d="M20.69,157.32" transform="translate(-4.21 -8.5)"/><path class="cls-3" d="M289.07,281.51" transform="translate(-4.21 -8.5)"/><path class="cls-3" d="M69.74,298.5" transform="translate(-4.21 -8.5)"/></svg>